<?xml version="1.0" standalone="no"?>
<!DOCTYPE svg PUBLIC "-//W3C//DTD SVG 20010904//EN"
 "http://www.w3.org/TR/2001/REC-SVG-20010904/DTD/svg10.dtd">
<svg version="1.0" xmlns="http://www.w3.org/2000/svg"
 width="700.000000pt" height="700.000000pt" viewBox="0 0 700.000000 700.000000"
 preserveAspectRatio="xMidYMid meet">
<metadata>
Created by potrace 1.14, written by Peter Selinger 2001-2017
</metadata>
<g transform="translate(0.000000,700.000000) scale(0.100000,-0.100000)"
fill="#000000" stroke="none">
<path d="M3250 5789 c-674 -75 -1277 -443 -1662 -1014 -184 -274 -311 -602
-364 -945 -22 -141 -25 -478 -6 -620 47 -339 170 -678 347 -951 l43 -66 -115
-418 c-63 -229 -112 -419 -109 -422 6 -6 51 5 532 131 l331 87 79 -47 c251
-150 543 -252 854 -301 158 -24 489 -24 650 1 138 21 344 73 460 115 346 127
698 368 933 639 325 376 509 791 567 1282 13 110 13 365 -1 488 -44 411 -201
807 -452 1141 -94 125 -266 303 -392 404 -340 275 -762 449 -1197 496 -112 13
-388 12 -498 0z m-500 -1044 c18 -16 39 -43 48 -60 41 -80 242 -582 242 -607
0 -57 -54 -143 -177 -282 -70 -78 -70 -96 2 -210 190 -302 433 -529 730 -679
195 -99 242 -114 283 -93 26 14 149 156 241 277 57 78 81 86 162 59 67 -23
570 -266 604 -293 40 -31 17 -241 -39 -363 -30 -65 -122 -156 -213 -210 -263
-157 -495 -146 -999 46 -315 120 -539 267 -797 519 -187 183 -308 329 -480
583 -200 295 -277 527 -255 774 9 106 29 177 75 268 60 122 168 244 248 282
46 23 60 24 172 22 120 -3 122 -3 153 -33z"/>
</g>
</svg>
